<?xml version="1.0" encoding="utf-8"?>
<!-- Generator: Adobe Illustrator 25.4.1, SVG Export Plug-In . SVG Version: 6.00 Build 0)  -->
<svg version="1.0" id="katman_1" xmlns="http://www.w3.org/2000/svg" xmlns:xlink="http://www.w3.org/1999/xlink" x="0px" y="0px"
	 viewBox="0 0 1700 1200" style="enable-background:new 0 0 1700 1200;" xml:space="preserve">
<style type="text/css">
	.st0{clip-path:url(#SVGID_00000060007847652082710140000006795427762608792966_);}
	.st1{fill:url(#SVGID_00000078726619705516566400000004006009668568883892_);}
	.st2{opacity:0.1;enable-background:new    ;}
	.st3{clip-path:url(#SVGID_00000090290318917500506660000002052061269494477225_);}
	.st4{fill:url(#SVGID_00000009568195812020242300000012744760633989959095_);}
	.st5{clip-path:url(#SVGID_00000053520416364353932890000009936029084590913421_);}
	.st6{fill:url(#SVGID_00000107575271690689436820000014868075285764917181_);}
	.st7{opacity:0.1;stroke:#000000;stroke-width:2.071171e-02;stroke-miterlimit:10;enable-background:new    ;}
	.st8{clip-path:url(#SVGID_00000139285236283598627790000004627246110805404044_);}
	.st9{fill:url(#SVGID_00000116941316695414986120000001909013826672748438_);}
	
		.st10{opacity:0.1;fill-rule:evenodd;clip-rule:evenodd;stroke:#000000;stroke-width:2.071171e-02;stroke-miterlimit:10;enable-background:new    ;}
	.st11{clip-path:url(#SVGID_00000078736506695678094360000016217025963104872601_);}
	.st12{fill:url(#SVGID_00000119106271750280630620000002025101925913077637_);}
</style>
<g id="Layer_2">
	<g id="Layer_1-2">
		<g>
			<defs>
				<path id="SVGID_1_" d="M670.2,916.7C499.5,828.4,434,629.4,491.9,450.6c3.7-11.4-2-23.7-13.1-28.3l-3.3-1.4l-5.4,11.4
					c-6,12.6-11.5,25.5-16.2,38.7c-78.9,218.3,34.1,459.1,252.4,538c1.3,0.5,2.6,0.9,4,1.4c97.6,18.4,192.5,14.6,265.5-22.9
					c75-38.6,127.6-112.6,176.7-210.1c-15.9,29.6-36.1,56.6-59.9,80.4C981.1,969.2,808.3,988.2,670.2,916.7L670.2,916.7z"/>
			</defs>
			<clipPath id="SVGID_00000145058751107801603890000003099420144833037987_">
				<use xlink:href="#SVGID_1_"  style="overflow:visible;"/>
			</clipPath>
			<g style="clip-path:url(#SVGID_00000145058751107801603890000003099420144833037987_);">
				
					<linearGradient id="SVGID_00000053535181750812256720000010007445397408363157_" gradientUnits="userSpaceOnUse" x1="137.0768" y1="1133.693" x2="580.6595" y2="385.8138" gradientTransform="matrix(1 0 0 -1 454 1496)">
					<stop  offset="0.14" style="stop-color:#FFCD02"/>
					<stop  offset="0.37" style="stop-color:#FF963B"/>
					<stop  offset="0.7" style="stop-color:#FF6373"/>
					<stop  offset="1" style="stop-color:#FF4295"/>
				</linearGradient>
				
					<rect x="419" y="409.1" style="fill:url(#SVGID_00000053535181750812256720000010007445397408363157_);" width="780" height="641.4"/>
				<ellipse class="st2" cx="848.9" cy="604.1" rx="397.8" ry="393.8"/>
			</g>
		</g>
		<g>
			<defs>
				<path id="SVGID_00000068675346670729329550000011491456814861807038_" d="M610.5,774.8c113.4,116.1,304,149,426,26.9
					c60.2-145.3,32.1-233.8-54.9-280.1c38.4,51.3,43.9,120.2,14.1,176.9c-63,120.6-243.8,113.9-331.6,24.1
					c-42.8-43.8-69.6-100.9-75.9-161.9c-26.7-152.4,33.5-271.7,179.2-357.6c-113.5,25.6-197.7,105.2-239.2,222.8
					C488.9,548.4,520.6,682.7,610.5,774.8z"/>
			</defs>
			<clipPath id="SVGID_00000068664196203460030910000014090149601466087040_">
				<use xlink:href="#SVGID_00000068675346670729329550000011491456814861807038_"  style="overflow:visible;"/>
			</clipPath>
			<g style="clip-path:url(#SVGID_00000068664196203460030910000014090149601466087040_);">
				
					<linearGradient id="SVGID_00000139994816362256051150000007856331790765846158_" gradientUnits="userSpaceOnUse" x1="4.4724" y1="1277.2576" x2="687.6275" y2="594.1025" gradientTransform="matrix(1 0 0 -1 454 1496)">
					<stop  offset="0" style="stop-color:#1B59D2"/>
					<stop  offset="0.51" style="stop-color:#4E9BF2"/>
					<stop  offset="0.98" style="stop-color:#1B59D2"/>
				</linearGradient>
				
					<rect x="497.5" y="179.8" style="fill:url(#SVGID_00000139994816362256051150000007856331790765846158_);" width="605.2" height="761.1"/>
				<path class="st2" d="M1099.2,525.5c0,195.5-119.7,305.6-257,305.6c-171.3,0-298.9-138.1-298.9-316.9s138.9-324,310.2-324
					S1099.2,346.7,1099.2,525.5z"/>
			</g>
		</g>
		<g>
			<defs>
				<path id="SVGID_00000124133339070055173020000016825726520457174204_" d="M794.5,468.9c69.2-22.5,141.5-8.1,187,52.7
					c44,33.6,67.7,82,71.4,145.5c2.2,39.2-3.3,84-16.5,134.6c103.7-103.7,103.7-271.9,0-375.7c0,0,0,0,0,0
					c-102.4-102.4-220.1-94.5-341.2-31.8l-7.5,3.9l6.3,193.4c9.5-28.4,31.3-30.5,47.5-50.7C758.5,519.7,770.2,481.1,794.5,468.9z"/>
			</defs>
			<clipPath id="SVGID_00000084493024695181474370000013775551965658988455_">
				<use xlink:href="#SVGID_00000124133339070055173020000016825726520457174204_"  style="overflow:visible;"/>
			</clipPath>
			<g style="clip-path:url(#SVGID_00000084493024695181474370000013775551965658988455_);">
				
					<linearGradient id="SVGID_00000096775183951085280650000013887515065972222652_" gradientUnits="userSpaceOnUse" x1="168.8085" y1="1093.7627" x2="725.2306" y2="772.5023" gradientTransform="matrix(1 0 0 -1 454 1496)">
					<stop  offset="0" style="stop-color:#50AFF3"/>
					<stop  offset="0.33" style="stop-color:#4064C5"/>
					<stop  offset="1" style="stop-color:#6C349F"/>
				</linearGradient>
				
					<rect x="673" y="315.4" style="fill:url(#SVGID_00000096775183951085280650000013887515065972222652_);" width="456.1" height="495"/>
				<path class="st7" d="M481.5,187.9v869.6h753.7V187.9H481.5z M838,895.3c-138.5,0-225.8-47.4-225.8-185.9
					c0-140,103.7-305.9,242.2-305.9c114.1,0,234.2,102.7,234.2,241.1C1088.7,783.1,976.5,895.3,838,895.3
					C838.1,895.3,838,895.3,838,895.3z"/>
			</g>
		</g>
		<g>
			<defs>
				<path id="SVGID_00000086691758994419556740000008251830637647227051_" d="M848.6,269c190.5-0.1,344.9,154.2,345.1,344.6
					c0,57.2-14.2,113.5-41.3,163.8c-97,192.4-244.4,270.1-442.3,233c219,76.4,458.4-39.1,534.9-258c76.4-219-39.1-458.4-258-534.9
					c-40.1-14-82.2-21.9-124.7-23.2c-4.6-0.1-9.2-0.1-13.7-0.1c-27.3,0-54.5,3-81.1,8.9C610,289.5,550.2,408.7,588.2,560.7
					C576,445.1,638.4,334.5,743.7,285.3l15.4-4.5C788.3,272.9,818.4,269,848.6,269L848.6,269z"/>
			</defs>
			<clipPath id="SVGID_00000099661357791914082750000015154533892400370601_">
				<use xlink:href="#SVGID_00000086691758994419556740000008251830637647227051_"  style="overflow:visible;"/>
			</clipPath>
			<g style="clip-path:url(#SVGID_00000099661357791914082750000015154533892400370601_);">
				
					<linearGradient id="SVGID_00000129176651838632943110000014686767742153261502_" gradientUnits="userSpaceOnUse" x1="287.5262" y1="1379.9747" x2="649.9868" y2="384.1193" gradientTransform="matrix(1 0 0 -1 454 1496)">
					<stop  offset="0" style="stop-color:#A700BA"/>
					<stop  offset="0.49" style="stop-color:#C00C95"/>
					<stop  offset="0.86" style="stop-color:#DB1B62"/>
				</linearGradient>
				
					<rect x="559.5" y="182.3" style="fill:url(#SVGID_00000129176651838632943110000014686767742153261502_);" width="726.5" height="863.3"/>
				<path class="st10" d="M393.6,18.1v1135.8h934.5V18.1H393.6z M857.7,1021.1c-206.7,0-374.3-178.1-374.3-397.7
					S651,225.8,857.7,225.8S1232,403.9,1232,623.4S1064.4,1021.1,857.7,1021.1z"/>
			</g>
		</g>
		<g>
			<defs>
				<path id="SVGID_00000017504619482096579160000002562451376853608382_" d="M799.1,760.2l-4.6-291.2
					c-22.5,11.1-42.5,26.8-58.7,45.9c-17.7,20.9-31.6,46.5-41.7,76.6l3.8,117.1l3.9,3.7C733.5,743,767.5,753.4,799.1,760.2
					L799.1,760.2z"/>
			</defs>
			<clipPath id="SVGID_00000101080994678384537080000012159139783534266518_">
				<use xlink:href="#SVGID_00000017504619482096579160000002562451376853608382_"  style="overflow:visible;"/>
			</clipPath>
			<g style="clip-path:url(#SVGID_00000101080994678384537080000012159139783534266518_);">
				
					<linearGradient id="SVGID_00000109712838896794062370000010711819726496527546_" gradientUnits="userSpaceOnUse" x1="292.6345" y1="1030.6536" x2="292.6345" y2="732.2393" gradientTransform="matrix(1 0 0 -1 454 1496)">
					<stop  offset="0" style="stop-color:#1C58D2"/>
					<stop  offset="0.33" style="stop-color:#5734CA"/>
					<stop  offset="1" style="stop-color:#A203BC"/>
				</linearGradient>
				
					<rect x="689.2" y="465.3" style="fill:url(#SVGID_00000109712838896794062370000010711819726496527546_);" width="114.9" height="298.4"/>
				
					<rect x="747.8" y="420" transform="matrix(0.9996 -2.998651e-02 2.998651e-02 0.9996 -17.5148 23.9321)" class="st2" width="82.8" height="351.8"/>
			</g>
		</g>
	</g>
</g>
</svg>
